<svg xmlns="http://www.w3.org/2000/svg" version="1.1" xmlns:xlink="http://www.w3.org/1999/xlink" xmlns:svgjs="http://svgjs.dev/svgjs" viewBox="0 0 9.491468293967019 1.9266505095357962"><g transform="matrix(1,0,0,1,1.9847030407856874,0.3627393172678981)"><g><path d=" M 0.84228515625 0.28271484375 L 0.843017578125 0.547119140625 Q 0.843017578125 0.823974609375 0.854736328125 1.15576171875 Q 0.85546875 1.17919921875 0.8426513671875 1.190185546875 Q 0.829833984375 1.201171875 0.813720703125 1.201171875 Q 0.797607421875 1.201171875 0.784423828125 1.188720703125 Q 0.771240234375 1.17626953125 0.771240234375 1.15283203125 Q 0.7822265625 0.8232421875 0.7822265625 0.603515625 L 0.7822265625 0.22412109375 Q 0.7822265625 0.181640625 0.781494140625 0.144287109375 Q 0.765380859375 0.20654296875 0.73974609375 0.30615234375 Q 0.68115234375 0.525146484375 0.65771484375 0.6090087890625 Q 0.63427734375 0.69287109375 0.61083984375 0.774169921875 Q 0.5625 0.94189453125 0.520751953125 1.068603515625 Q 0.516357421875 1.083251953125 0.5035400390625 1.090576171875 Q 0.49072265625 1.097900390625 0.47900390625 1.097900390625 Q 0.456298828125 1.097900390625 0.4482421875 1.068603515625 Q 0.444580078125 1.056884765625 0.4310302734375 1.0118408203125 Q 0.41748046875 0.966796875 0.3973388671875 0.9005126953125 Q 0.377197265625 0.834228515625 0.3526611328125 0.7518310546875 Q 0.328125 0.66943359375 0.3021240234375 0.5830078125 Q 0.276123046875 0.49658203125 0.251220703125 0.41162109375 Q 0.226318359375 0.32666015625 0.205810546875 0.2548828125 Q 0.18896484375 0.195556640625 0.17724609375 0.15234375 L 0.1787109375 0.333984375 Q 0.1787109375 0.665771484375 0.1856689453125 0.882568359375 Q 0.192626953125 1.099365234375 0.193359375 1.134521484375 Q 0.194091796875 1.169677734375 0.1900634765625 1.177734375 Q 0.18603515625 1.185791015625 0.179443359375 1.19091796875 Q 0.15087890625 1.215087890625 0.123046875 1.189453125 Q 0.10986328125 1.177001953125 0.1116943359375 1.1455078125 Q 0.113525390625 1.114013671875 0.114990234375 1.0667724609375 Q 0.116455078125 1.01953125 0.1171875 0.966796875 Q 0.1201171875 0.84228515625 0.1201171875 0.736083984375 L 0.111328125 0.069580078125 Q 0.111328125 0.03662109375 0.126708984375 0.0230712890625 Q 0.14208984375 0.009521484375 0.16259765625 0.009521484375 Q 0.201416015625 0.009521484375 0.216064453125 0.056396484375 Q 0.217529296875 0.060791015625 0.2237548828125 0.0823974609375 Q 0.22998046875 0.10400390625 0.240234375 0.1387939453125 Q 0.25048828125 0.173583984375 0.2640380859375 0.2193603515625 Q 0.277587890625 0.26513671875 0.29296875 0.31787109375 Q 0.308349609375 0.37060546875 0.3251953125 0.428466796875 Q 0.3837890625 0.6298828125 0.487060546875 0.97998046875 Q 0.541259765625 0.825439453125 0.68701171875 0.279052734375 Q 0.715576171875 0.170654296875 0.744140625 0.057861328125 Q 0.75732421875 0.00732421875 0.804931640625 0.00732421875 Q 0.823974609375 0.00732421875 0.8353271484375 0.0260009765625 Q 0.8466796875 0.044677734375 0.84521484375 0.079833984375 Q 0.84228515625 0.12890625 0.84228515625 0.28271484375 M 1.162353515625 0.799072265625 L 1.163818359375 1.05908203125 Q 1.163818359375 1.09423828125 1.163818359375 1.119140625 Q 1.16455078125 1.130126953125 1.16455078125 1.13818359375 Q 1.34912109375 1.13818359375 1.409912109375 1.13232421875 Q 1.472900390625 1.125732421875 1.483154296875 1.128662109375 Q 1.493408203125 1.131591796875 1.500732421875 1.13818359375 Q 1.515380859375 1.1513671875 1.515380859375 1.1671142578125 Q 1.515380859375 1.182861328125 1.50146484375 1.1942138671875 Q 1.487548828125 1.20556640625 1.462646484375 1.2041015625 Q 1.342529296875 1.194580078125 1.245849609375 1.2008056640625 Q 1.149169921875 1.20703125 1.137451171875 1.2088623046875 Q 1.125732421875 1.210693359375 1.1165771484375 1.2088623046875 Q 1.107421875 1.20703125 1.10009765625 1.201171875 Q 1.083251953125 1.188720703125 1.084716796875 1.16455078125 Q 1.095703125 0.952880859375 1.095703125 0.6961669921875 Q 1.095703125 0.439453125 1.0960693359375 0.3731689453125 Q 1.096435546875 0.306884765625 1.096435546875 0.251953125 Q 1.094970703125 0.134033203125 1.09130859375 0.0853271484375 Q 1.087646484375 0.03662109375 1.0931396484375 0.027099609375 Q 1.0986328125 0.017578125 1.106689453125 0.01318359375 Q 1.11767578125 0.008056640625 1.134521484375 0.010986328125 Q 1.165283203125 0.01611328125 1.2158203125 0.01611328125 Q 1.313232421875 0.01611328125 1.3487548828125 0.0120849609375 Q 1.38427734375 0.008056640625 1.39453125 0.0113525390625 Q 1.40478515625 0.0146484375 1.411376953125 0.0205078125 Q 1.426025390625 0.0322265625 1.426025390625 0.049072265625 Q 1.426025390625 0.06591796875 1.412841796875 0.076904296875 Q 1.399658203125 0.087890625 1.376953125 0.0867919921875 Q 1.354248046875 0.085693359375 1.32861328125 0.0838623046875 Q 1.302978515625 0.08203125 1.273681640625 0.08056640625 Q 1.212158203125 0.078369140625 1.166748046875 0.08203125 Q 1.166748046875 0.145751953125 1.166015625 0.208740234375 Q 1.165283203125 0.283447265625 1.16455078125 0.3603515625 Q 1.162353515625 0.56689453125 1.162353515625 0.6650390625 Q 1.25390625 0.6650390625 1.297119140625 0.66064453125 Q 1.343994140625 0.655517578125 1.3560791015625 0.6650390625 Q 1.3681640625 0.674560546875 1.3681640625 0.690673828125 Q 1.3681640625 0.73095703125 1.292724609375 0.7294921875 Q 1.27734375 0.728759765625 1.264892578125 0.728759765625 L 1.20556640625 0.72802734375 L 1.162353515625 0.72802734375 L 1.162353515625 0.799072265625 M 2.168701171875 0.29150390625 Q 2.192138671875 0.380859375 2.192138671875 0.4888916015625 Q 2.192138671875 0.596923828125 2.173828125 0.6895751953125 Q 2.155517578125 0.7822265625 2.12255859375 0.8609619140625 Q 2.089599609375 0.939697265625 2.0438232421875 1.0030517578125 Q 1.998046875 1.06640625 1.9423828125 1.111083984375 Q 1.827392578125 1.203369140625 1.692626953125 1.203369140625 Q 1.67138671875 1.203369140625 1.6651611328125 1.1898193359375 Q 1.658935546875 1.17626953125 1.658935546875 1.1572265625 L 1.658935546875 1.09423828125 Q 1.658935546875 1.048828125 1.6585693359375 0.9840087890625 Q 1.658203125 0.919189453125 1.6578369140625 0.8397216796875 Q 1.657470703125 0.76025390625 1.6563720703125 0.6749267578125 Q 1.6552734375 0.589599609375 1.6541748046875 0.5028076171875 Q 1.653076171875 0.416015625 1.651611328125 0.3369140625 Q 1.647216796875 0.1728515625 1.641357421875 0.078369140625 Q 1.6376953125 0.028564453125 1.685302734375 0.022705078125 Q 1.755615234375 0.012451171875 1.801025390625 0.012451171875 Q 2.095458984375 0.012451171875 2.168701171875 0.29150390625 M 1.732177734375 1.134521484375 Q 1.81494140625 1.131591796875 1.89697265625 1.0634765625 Q 2.04931640625 0.936767578125 2.1005859375 0.685546875 Q 2.1181640625 0.59912109375 2.1181640625 0.4896240234375 Q 2.1181640625 0.380126953125 2.0914306640625 0.2991943359375 Q 2.064697265625 0.21826171875 2.022216796875 0.169921875 Q 1.9423828125 0.0791015625 1.81640625 0.0791015625 Q 1.761474609375 0.0791015625 1.72705078125 0.0908203125 Q 1.72119140625 0.166259765625 1.72119140625 0.302490234375 Q 1.72119140625 0.4658203125 1.721923828125 0.55224609375 Q 1.72265625 0.638671875 1.7237548828125 0.721435546875 Q 1.724853515625 0.80419921875 1.7259521484375 0.8800048828125 Q 1.72705078125 0.955810546875 1.728515625 1.015869140625 Q 1.730712890625 1.09130859375 1.732177734375 1.134521484375 M 2.4744873046875 0.2398681640625 Q 2.47412109375 0.27978515625 2.47412109375 0.56103515625 Q 2.47412109375 0.84228515625 2.48291015625 1.15283203125 Q 2.483642578125 1.17626953125 2.4693603515625 1.188720703125 Q 2.455078125 1.201171875 2.4393310546875 1.201171875 Q 2.423583984375 1.201171875 2.4114990234375 1.190185546875 Q 2.3994140625 1.17919921875 2.40087890625 1.14111328125 Q 2.40234375 1.10302734375 2.40380859375 1.03564453125 Q 2.4052734375 0.96826171875 2.40673828125 0.89208984375 Q 2.40966796875 0.7412109375 2.40966796875 0.6104736328125 Q 2.40966796875 0.479736328125 2.4093017578125 0.4068603515625 Q 2.408935546875 0.333984375 2.407470703125 0.2724609375 Q 2.4052734375 0.13623046875 2.3994140625 0.054931640625 Q 2.397216796875 0.031494140625 2.4078369140625 0.0201416015625 Q 2.41845703125 0.0087890625 2.435302734375 0.0087890625 Q 2.4521484375 0.0087890625 2.466796875 0.0201416015625 Q 2.4814453125 0.031494140625 2.4803466796875 0.05859375 Q 2.479248046875 0.085693359375 2.4781494140625 0.112060546875 Q 2.47705078125 0.138427734375 2.4759521484375 0.169189453125 Q 2.474853515625 0.199951171875 2.4744873046875 0.2398681640625 M 2.9912109375 1.218017578125 Q 2.838134765625 1.218017578125 2.7659912109375 1.059814453125 Q 2.69384765625 0.901611328125 2.69384765625 0.592529296875 Q 2.69384765625 0.3486328125 2.776611328125 0.18310546875 Q 2.817626953125 0.1025390625 2.876220703125 0.0545654296875 Q 2.934814453125 0.006591796875 3.0113525390625 0.006591796875 Q 3.087890625 0.006591796875 3.14501953125 0.0465087890625 Q 3.2021484375 0.08642578125 3.239501953125 0.161865234375 Q 3.312744140625 0.309814453125 3.314208984375 0.592529296875 Q 3.315673828125 0.889892578125 3.229248046875 1.055419921875 Q 3.144287109375 1.218017578125 2.9912109375 1.218017578125 M 3.08935546875 0.0926513671875 Q 3.054931640625 0.071044921875 3.01318359375 0.071044921875 Q 2.971435546875 0.071044921875 2.937744140625 0.0926513671875 Q 2.904052734375 0.1142578125 2.8765869140625 0.15234375 Q 2.84912109375 0.1904296875 2.8282470703125 0.2420654296875 Q 2.807373046875 0.293701171875 2.792724609375 0.35302734375 Q 2.76416015625 0.474609375 2.76416015625 0.5958251953125 Q 2.76416015625 0.717041015625 2.7733154296875 0.799072265625 Q 2.782470703125 0.881103515625 2.798583984375 0.9407958984375 Q 2.814697265625 1.00048828125 2.8370361328125 1.0404052734375 Q 2.859375 1.080322265625 2.885009765625 1.1044921875 Q 2.9326171875 1.147705078125 2.99853515625 1.147705078125 Q 3.193359375 1.147705078125 3.235107421875 0.78955078125 Q 3.24462890625 0.70751953125 3.24462890625 0.62255859375 Q 3.24462890625 0.53759765625 3.239501953125 0.473876953125 Q 3.234375 0.41015625 3.2230224609375 0.3511962890625 Q 3.211669921875 0.292236328125 3.1937255859375 0.240966796875 Q 3.17578125 0.189697265625 3.1497802734375 0.1519775390625 Q 3.123779296875 0.1142578125 3.08935546875 0.0926513671875 M 3.517822265625 0.873779296875 L 3.51708984375 0.52294921875 Q 3.51708984375 0.27685546875 3.49951171875 0.0556640625 Q 3.497314453125 0.022705078125 3.520751953125 0.01318359375 Q 3.533935546875 0.00732421875 3.551513671875 0.01025390625 Q 3.582275390625 0.015380859375 3.626220703125 0.015380859375 Q 3.670166015625 0.015380859375 3.6903076171875 0.0150146484375 Q 3.71044921875 0.0146484375 3.73095703125 0.013916015625 Q 3.7822265625 0.01171875 3.8009033203125 0.009521484375 Q 3.819580078125 0.00732421875 3.8294677734375 0.01025390625 Q 3.83935546875 0.01318359375 3.8466796875 0.01904296875 Q 3.861328125 0.0322265625 3.861328125 0.0487060546875 Q 3.861328125 0.065185546875 3.84814453125 0.076171875 Q 3.8349609375 0.087158203125 3.8118896484375 0.0860595703125 Q 3.788818359375 0.0849609375 3.760986328125 0.0831298828125 Q 3.733154296875 0.081298828125 3.700927734375 0.08056640625 Q 3.633544921875 0.078369140625 3.586669921875 0.081298828125 L 3.586669921875 0.2080078125 Q 3.586669921875 0.28271484375 3.5859375 0.3603515625 Q 3.585205078125 0.567626953125 3.585205078125 0.6650390625 Q 3.685546875 0.6650390625 3.74267578125 0.6591796875 Q 3.803466796875 0.652587890625 3.803466796875 0.690673828125 Q 3.803466796875 0.727294921875 3.71923828125 0.72802734375 Q 3.697998046875 0.728759765625 3.685546875 0.728759765625 L 3.626953125 0.72802734375 L 3.585205078125 0.72802734375 L 3.591796875 1.156494140625 Q 3.591796875 1.175537109375 3.5819091796875 1.1883544921875 Q 3.572021484375 1.201171875 3.560302734375 1.201171875 Q 3.548583984375 1.201171875 3.541259765625 1.1993408203125 Q 3.533935546875 1.197509765625 3.52734375 1.1923828125 Q 3.511962890625 1.17919921875 3.513427734375 1.156494140625 Q 3.517822265625 1.072265625 3.517822265625 0.873779296875 M 3.973388671875 0.82177734375 L 3.974853515625 0.511962890625 Q 3.974853515625 0.248291015625 3.9580078125 0.065185546875 Q 3.955810546875 0.041748046875 3.9697265625 0.0303955078125 Q 3.983642578125 0.01904296875 4.0015869140625 0.01904296875 Q 4.01953125 0.01904296875 4.0341796875 0.0303955078125 Q 4.048828125 0.041748046875 4.04736328125 0.0802001953125 Q 4.0458984375 0.11865234375 4.0440673828125 0.1776123046875 Q 4.042236328125 0.236572265625 4.040771484375 0.302490234375 Q 4.037841796875 0.434326171875 4.037841796875 0.541259765625 Q 4.037841796875 0.648193359375 4.0382080078125 0.6873779296875 Q 4.03857421875 0.7265625 4.039306640625 0.76318359375 Q 4.04296875 0.9580078125 4.061279296875 1.010009765625 Q 4.07958984375 1.06201171875 4.103759765625 1.08984375 Q 4.152099609375 1.1455078125 4.228271484375 1.1455078125 Q 4.306640625 1.1455078125 4.35791015625 1.087646484375 Q 4.41064453125 1.027587890625 4.41943359375 0.919921875 Q 4.427490234375 0.7880859375 4.427490234375 0.708251953125 Q 4.427490234375 0.62841796875 4.4271240234375 0.5701904296875 Q 4.4267578125 0.511962890625 4.42529296875 0.439453125 Q 4.41943359375 0.228515625 4.41357421875 0.060791015625 Q 4.412841796875 0.037353515625 4.426025390625 0.0263671875 Q 4.439208984375 0.015380859375 4.4560546875 0.015380859375 Q 4.472900390625 0.015380859375 4.48681640625 0.0263671875 Q 4.500732421875 0.037353515625 4.5 0.060791015625 Q 4.4970703125 0.169921875 4.4967041015625 0.276123046875 Q 4.496337890625 0.38232421875 4.49560546875 0.487060546875 Q 4.494140625 0.7412109375 4.486083984375 0.8521728515625 Q 4.47802734375 0.963134765625 4.4615478515625 1.01953125 Q 4.445068359375 1.075927734375 4.414306640625 1.119873046875 Q 4.345458984375 1.218017578125 4.22900390625 1.218017578125 Q 4.036376953125 1.218017578125 3.98876953125 1.0048828125 Q 3.973388671875 0.938232421875 3.973388671875 0.856201171875 L 3.973388671875 0.82177734375 M 4.71826171875 0.864990234375 Q 4.743896484375 0.864990234375 4.75048828125 0.884765625 Q 4.757080078125 0.904541015625 4.757080078125 0.949951171875 Q 4.757080078125 0.995361328125 4.76953125 1.034912109375 Q 4.781982421875 1.074462890625 4.803955078125 1.1015625 Q 4.8486328125 1.15576171875 4.927734375 1.15576171875 Q 5.0068359375 1.15576171875 5.0537109375 1.0975341796875 Q 5.1005859375 1.039306640625 5.1005859375 0.93017578125 Q 5.1005859375 0.784423828125 4.976806640625 0.6708984375 Q 4.941650390625 0.638671875 4.9046630859375 0.607177734375 Q 4.86767578125 0.57568359375 4.83251953125 0.5419921875 Q 4.79736328125 0.50830078125 4.76953125 0.46728515625 Q 4.708740234375 0.377197265625 4.708740234375 0.26220703125 Q 4.708740234375 0.144287109375 4.7783203125 0.07177734375 Q 4.84716796875 0 4.951171875 0 Q 5.04052734375 0 5.09765625 0.06005859375 Q 5.161376953125 0.12890625 5.15625 0.25048828125 Q 5.155517578125 0.25634765625 5.1558837890625 0.262939453125 Q 5.15625 0.26953125 5.1544189453125 0.287841796875 Q 5.152587890625 0.30615234375 5.1390380859375 0.3204345703125 Q 5.12548828125 0.334716796875 5.1097412109375 0.334716796875 Q 5.093994140625 0.334716796875 5.0830078125 0.3204345703125 Q 5.072021484375 0.30615234375 5.07568359375 0.28271484375 Q 5.085205078125 0.229248046875 5.085205078125 0.2017822265625 Q 5.085205078125 0.17431640625 5.0753173828125 0.1494140625 Q 5.0654296875 0.12451171875 5.047119140625 0.10546875 Q 5.007568359375 0.065185546875 4.944580078125 0.065185546875 Q 4.875 0.065185546875 4.8310546875 0.11279296875 Q 4.78271484375 0.16552734375 4.78271484375 0.242431640625 Q 4.78271484375 0.3193359375 4.799560546875 0.3665771484375 Q 4.81640625 0.413818359375 4.8438720703125 0.451904296875 Q 4.871337890625 0.489990234375 4.906494140625 0.521484375 Q 4.941650390625 0.552978515625 4.9779052734375 0.583740234375 Q 5.01416015625 0.614501953125 5.04931640625 0.6470947265625 Q 5.08447265625 0.6796875 5.1123046875 0.71923828125 Q 5.173095703125 0.80859375 5.173095703125 0.925048828125 Q 5.173095703125 1.061279296875 5.102783203125 1.142578125 Q 5.033203125 1.22314453125 4.916748046875 1.22314453125 Q 4.808349609375 1.22314453125 4.740234375 1.1396484375 Q 4.67578125 1.061279296875 4.67578125 0.963134765625 Q 4.67578125 0.864990234375 4.71826171875 0.864990234375 M 5.4744873046875 0.2398681640625 Q 5.47412109375 0.27978515625 5.47412109375 0.56103515625 Q 5.47412109375 0.84228515625 5.48291015625 1.15283203125 Q 5.483642578125 1.17626953125 5.4693603515625 1.188720703125 Q 5.455078125 1.201171875 5.4393310546875 1.201171875 Q 5.423583984375 1.201171875 5.4114990234375 1.190185546875 Q 5.3994140625 1.17919921875 5.40087890625 1.14111328125 Q 5.40234375 1.10302734375 5.40380859375 1.03564453125 Q 5.4052734375 0.96826171875 5.40673828125 0.89208984375 Q 5.40966796875 0.7412109375 5.40966796875 0.6104736328125 Q 5.40966796875 0.479736328125 5.4093017578125 0.4068603515625 Q 5.408935546875 0.333984375 5.407470703125 0.2724609375 Q 5.4052734375 0.13623046875 5.3994140625 0.054931640625 Q 5.397216796875 0.031494140625 5.4078369140625 0.0201416015625 Q 5.41845703125 0.0087890625 5.435302734375 0.0087890625 Q 5.4521484375 0.0087890625 5.466796875 0.0201416015625 Q 5.4814453125 0.031494140625 5.4803466796875 0.05859375 Q 5.479248046875 0.085693359375 5.4781494140625 0.112060546875 Q 5.47705078125 0.138427734375 5.4759521484375 0.169189453125 Q 5.474853515625 0.199951171875 5.4744873046875 0.2398681640625 M 5.9912109375 1.218017578125 Q 5.838134765625 1.218017578125 5.7659912109375 1.059814453125 Q 5.69384765625 0.901611328125 5.69384765625 0.592529296875 Q 5.69384765625 0.3486328125 5.776611328125 0.18310546875 Q 5.817626953125 0.1025390625 5.876220703125 0.0545654296875 Q 5.934814453125 0.006591796875 6.0113525390625 0.006591796875 Q 6.087890625 0.006591796875 6.14501953125 0.0465087890625 Q 6.2021484375 0.08642578125 6.239501953125 0.161865234375 Q 6.312744140625 0.309814453125 6.314208984375 0.592529296875 Q 6.315673828125 0.889892578125 6.229248046875 1.055419921875 Q 6.144287109375 1.218017578125 5.9912109375 1.218017578125 M 6.08935546875 0.0926513671875 Q 6.054931640625 0.071044921875 6.01318359375 0.071044921875 Q 5.971435546875 0.071044921875 5.937744140625 0.0926513671875 Q 5.904052734375 0.1142578125 5.8765869140625 0.15234375 Q 5.84912109375 0.1904296875 5.8282470703125 0.2420654296875 Q 5.807373046875 0.293701171875 5.792724609375 0.35302734375 Q 5.76416015625 0.474609375 5.76416015625 0.5958251953125 Q 5.76416015625 0.717041015625 5.7733154296875 0.799072265625 Q 5.782470703125 0.881103515625 5.798583984375 0.9407958984375 Q 5.814697265625 1.00048828125 5.8370361328125 1.0404052734375 Q 5.859375 1.080322265625 5.885009765625 1.1044921875 Q 5.9326171875 1.147705078125 5.99853515625 1.147705078125 Q 6.193359375 1.147705078125 6.235107421875 0.78955078125 Q 6.24462890625 0.70751953125 6.24462890625 0.62255859375 Q 6.24462890625 0.53759765625 6.239501953125 0.473876953125 Q 6.234375 0.41015625 6.2230224609375 0.3511962890625 Q 6.211669921875 0.292236328125 6.1937255859375 0.240966796875 Q 6.17578125 0.189697265625 6.1497802734375 0.1519775390625 Q 6.123779296875 0.1142578125 6.08935546875 0.0926513671875 M 7.060546875 0.053466796875 Q 7.05615234375 0.418212890625 7.05615234375 0.5694580078125 Q 7.05615234375 0.720703125 7.0565185546875 0.7913818359375 Q 7.056884765625 0.862060546875 7.0576171875 0.92578125 Q 7.05908203125 1.060546875 7.0609130859375 1.1099853515625 Q 7.062744140625 1.159423828125 7.058349609375 1.1689453125 Q 7.053955078125 1.178466796875 7.046630859375 1.18505859375 Q 7.0166015625 1.212158203125 6.98291015625 1.190185546875 Q 6.9697265625 1.181396484375 6.9638671875 1.163818359375 Q 6.8994140625 0.974853515625 6.80859375 0.7532958984375 Q 6.7177734375 0.53173828125 6.681884765625 0.440185546875 Q 6.61669921875 0.27392578125 6.568359375 0.135498046875 L 6.577880859375 1.1572265625 Q 6.577880859375 1.179931640625 6.566162109375 1.19091796875 Q 6.554443359375 1.201904296875 6.5394287109375 1.201904296875 Q 6.5244140625 1.201904296875 6.5115966796875 1.1898193359375 Q 6.498779296875 1.177734375 6.49951171875 1.153564453125 Q 6.5068359375 0.9521484375 6.5068359375 0.6943359375 L 6.5068359375 0.260009765625 Q 6.5068359375 0.146484375 6.50537109375 0.064453125 Q 6.50537109375 0.037353515625 6.5218505859375 0.0230712890625 Q 6.538330078125 0.0087890625 6.556640625 0.0087890625 Q 6.59765625 0.0087890625 6.61083984375 0.047607421875 Q 6.6240234375 0.08642578125 6.648193359375 0.1519775390625 Q 6.67236328125 0.217529296875 6.702392578125 0.2977294921875 Q 6.732421875 0.3779296875 6.766845703125 0.4676513671875 Q 6.80126953125 0.557373046875 6.835693359375 0.6463623046875 Q 6.8701171875 0.7353515625 6.90234375 0.81884765625 Q 6.9345703125 0.90234375 6.9609375 0.970458984375 Q 6.9873046875 1.03857421875 7.005615234375 1.0869140625 Q 7.00634765625 1.089111328125 7.007080078125 1.090576171875 Q 7.001220703125 0.947021484375 6.99755859375 0.77783203125 Q 6.993896484375 0.572021484375 6.9913330078125 0.469482421875 Q 6.98876953125 0.366943359375 6.9862060546875 0.2618408203125 Q 6.983642578125 0.15673828125 6.97998046875 0.053466796875 Q 6.97998046875 0.030029296875 6.9927978515625 0.0186767578125 Q 7.005615234375 0.00732421875 7.02099609375 0.00732421875 Q 7.036376953125 0.00732421875 7.0484619140625 0.0186767578125 Q 7.060546875 0.030029296875 7.060546875 0.053466796875" fill="#382d5e" fill-rule="nonzero"></path></g><g></g><g clip-path="url(#SvgjsClipPath1001)"><g clip-path="url(#a31fdf3c5-2a58-4b0c-9de7-b12382c942b4495bd6dd-4d7b-4dc1-aae1-3754e171043d)"><path d=" M -1.0256388156771774 1.2304857828365656 C -0.6801080469340691 1.2304857828365656 -0.3999999999999999 0.9484677514107094 -0.3999999999999999 0.6005821021897755 C -0.3999999999999999 0.25270412358929045 -0.6801080469340691 -0.029313907836565622 -1.0256388156771774 -0.029313907836565622 C -1.3711695844202856 -0.029313907836565622 -1.6512776313543551 0.25270412358929045 -1.6512776313543551 0.6005821021897755 C -1.6512776313543551 0.9484677514107094 -1.3711695844202856 1.2304857828365656 -1.0256388156771774 1.2304857828365656" fill="#efe0e2" transform="matrix(1,0,0,1,0,0)" fill-rule="nonzero"></path></g><g clip-path="url(#b31fdf3c5-2a58-4b0c-9de7-b12382c942b4495bd6dd-4d7b-4dc1-aae1-3754e171043d)"><path d=" M -1.247895043185315 0.2086287384896612 C -1.035994153283251 0.08629001294946155 -0.7650371565447714 0.15889243549871165 -0.6426984310045718 0.3707933254007754 C -0.5203597054643723 0.5826865446823902 -0.5929621280136224 0.85364354142087 -0.8048630179156862 0.9759822669610696 C -1.01676390781775 1.0983209925012696 -1.2877132339357806 1.0257262405724683 -1.4100596300964292 0.8138253506704044 C -1.532398355636629 0.6019244607683406 -1.4597959330873786 0.3309674640298609 -1.247895043185315 0.2086287384896612" fill="#382d5e" transform="matrix(1,0,0,1,0,0)" fill-rule="nonzero"></path></g><g clip-path="url(#b31fdf3c5-2a58-4b0c-9de7-b12382c942b4495bd6dd-4d7b-4dc1-aae1-3754e171043d)"><path d=" M -1.027057880460232 0.19169967915884287 C -0.8884651101887212 0.19169967915884287 -0.7535082140100096 0.2635580515245454 -0.6793793379914197 0.3919642378398594 C -0.5689070622857355 0.5833078649387545 -0.6346979738763237 0.8288444255094357 -0.8260416009752191 0.9393167012151198 C -1.0173775574536652 1.049788976920804 -1.2629141180243464 0.9839980653302156 -1.3733940643504794 0.7926544382313202 C -1.4838586694357145 0.601318481752874 -1.4180677578451262 0.35577425056174405 -1.22673180136668 0.24530197485605998 C -1.1660527974127295 0.21016911301393038 -1.09717392041737 0.1916786365649438 -1.0270578804602324 0.19169967915884287 M -1.0257155218816671 0.9907098582230409 C -0.9559862837806388 0.9907338958605387 -0.8874872210207098 0.9723436425989977 -0.8271461703198668 0.9373990461028839 C -0.6368610888429258 0.8275404200331152 -0.5714306964134377 0.5833538886614483 -0.6812969931036554 0.3930688071845073 C -0.791155619173424 0.20279139632801513 -1.035334479924642 0.1373610038985272 -1.225619561401583 0.24721962996829583 L -1.226179516694356 0.24626080241217785 L -1.225619561401583 0.24721962996829583 C -1.4159046428785242 0.3570782560380644 -1.4813350353080121 0.6012647874097314 -1.3714687386177946 0.7915498688866723 C -1.2977540761034476 0.9192350168797856 -1.1635258888673856 0.9907098582230409 -1.025715521881667 0.9907098582230409" fill="#c84449" transform="matrix(1,0,0,1,0,0)" fill-rule="nonzero"></path></g><g clip-path="url(#b31fdf3c5-2a58-4b0c-9de7-b12382c942b4495bd6dd-4d7b-4dc1-aae1-3754e171043d)"><path d=" M -1.0269658330148448 0.2349159547681906 C -0.9955453872917014 0.23493874914279234 -0.9642636708484922 0.23908299632533458 -0.9339212069691606 0.24724264182964278 C -0.8417510316546554 0.27194203967524083 -0.7647149904859158 0.3310518408547994 -0.7170037312934874 0.41369510557171646 C -0.6692924721010589 0.49633069966818466 -0.6566206071194042 0.5926046569228742 -0.6813200049650023 0.6847748322373793 C -0.7060117321901515 0.7769450075518842 -0.7651292039901588 0.8539810487206235 -0.847764798086627 0.9016923079130521 C -0.9304003921830952 0.9494035671054806 -1.0266743494377848 0.9620754320871352 -1.1188445247522898 0.9373760342415371 C -1.2110147000667948 0.9126843070163883 -1.2880507412355342 0.8535668352163807 -1.3357620004279627 0.7709312411199125 C -1.3834732596203911 0.6882956470234444 -1.3961451246020458 0.5920216897687546 -1.3714533973768968 0.4998515144542498 C -1.3467539995312987 0.4076813391397448 -1.2876441983517402 0.33064529797100534 -1.205000933634823 0.28293403877857687 C -1.1499642319136536 0.251154658258604 -1.0888677400378186 0.2349159547681906 -1.0269658330148448 0.2349159547681906 M -1.0258075693270543 0.9474935826136937 C -0.9642815227060786 0.9474935826136937 -0.9035762324731398 0.9313622678095655 -0.8488693674312748 0.8997746528008161 C -0.766747704904886 0.8523548771854476 -0.7079984228864278 0.7757944144845427 -0.6834524374498087 0.6841995357037084 C -0.6589064520131893 0.5925969863024254 -0.6715092814108035 0.49692133744275335 -0.7189213864057232 0.4147996749163643 C -0.7663411620210919 0.3326703417695264 -0.8428939541015479 0.2739287303715172 -0.934496503502831 0.24938274493489804 C -1.0260990529041143 0.22484443011872784 -1.1217747017637862 0.23743191827544408 -1.2038963642901752 0.2848516938908127 C -1.286025697437013 0.33226379888573243 -1.3447673088350223 0.4088242615866373 -1.3693132942716415 0.5004268109879204 C -1.3938592797082607 0.5920216897687546 -1.3812641209310954 0.6876973386284267 -1.3338443453157267 0.7698266717752646 C -1.286432240320807 0.8519483343016536 -1.2098717776199022 0.9106976163201117 -1.118269228218619 0.9352436017567309 C -1.0881167329978654 0.9433514783410811 -1.057031119268415 0.9474699224364795 -1.0258075693270543 0.9474935826136935" fill="#c84449" transform="matrix(1,0,0,1,0,0)" fill-rule="nonzero"></path></g><g clip-path="url(#b31fdf3c5-2a58-4b0c-9de7-b12382c942b4495bd6dd-4d7b-4dc1-aae1-3754e171043d)"><path d=" M -1.0269044680512533 0.27858479698402583 C -0.9183728593191518 0.27858479698402583 -0.8126793801531595 0.33486413921792413 -0.7546281245955553 0.43541830268312437 C -0.6681188671723706 0.5852638731532352 -0.7196347541074751 0.7775509865673508 -0.8694803245775861 0.8640602439905353 C -1.019318224427248 0.9505771720341688 -1.2116130084618124 0.8990536144786154 -1.298129936505446 0.7492080440085045 C -1.3846391939286304 0.5993624735383934 -1.3331156363730772 0.40707536012427814 -1.1832700659029662 0.3205584320806446 L -1.1827177812306422 0.3215172596367625 L -1.1832700659029662 0.3205584320806446 C -1.1357510685890935 0.2930483801076554 -1.0818121890830072 0.2785694226066839 -1.0269044680512531 0.2785847969840258 M -1.025853593049748 0.9038247403978583 C -0.9730260300178742 0.9038247403978583 -0.9195387936273912 0.8904088252326561 -0.8705925645426829 0.8621425888782993 C -0.7218055396945261 0.7762469810910302 -0.670642501300073 0.5853098968759289 -0.7565457797077911 0.4365228720277721 C -0.8141828217611525 0.3366897468847727 -0.9191399213640462 0.2808016062937705 -1.0268967974308043 0.2807939356733215 C -1.0814212562344596 0.28077473119561586 -1.1349836491171708 0.29515629454496545 -1.1821654965583184 0.3224837578133293 C -1.3309525214064752 0.4083793656005985 -1.382115559800928 0.5993164498156998 -1.29621228139321 0.7481034746638566 C -1.2385675687193998 0.847936599806856 -1.133610469116506 0.9038247403978583 -1.025853593049748 0.9038247403978583" fill="#c84449" transform="matrix(1,0,0,1,0,0)" fill-rule="nonzero"></path></g><g clip-path="url(#b31fdf3c5-2a58-4b0c-9de7-b12382c942b4495bd6dd-4d7b-4dc1-aae1-3754e171043d)"><path d=" M -1.0268354324672129 0.3220235205863928 C -0.9333305691945916 0.3220235205863928 -0.8422803044656325 0.3705095124441645 -0.792260188518072 0.4571414997945323 C -0.7177247696156881 0.5862380419502512 -0.762114650153724 0.7519004317860836 -0.8912111923094429 0.8264358506884675 C -1.0203000638447128 0.9009712695908513 -1.1859701243009941 0.8565737184323665 -1.260505543203378 0.7274848468970966 C -1.335040962105762 0.5983883047413777 -1.290651081567726 0.4327259149055452 -1.1615545394120073 0.3581904960031614 C -1.1206146010296976 0.33448651130194323 -1.0741424856006268 0.322010509238055 -1.0268354324672124 0.3220235205863927 M -1.0259302992542372 0.8603860167954913 C -0.9790112732833358 0.8604003600992187 -0.9329200371517579 0.8480275131992094 -0.892315761654091 0.8245181955762317 C -0.7642777651203262 0.7505964263097632 -0.7202560743638394 0.5862840656729449 -0.794177843630308 0.45824606913918015 C -0.8680996128967763 0.3302080726054155 -1.0324043029131458 0.2861863818489288 -1.1604499700673594 0.3601081511153972 L -1.1610022547396832 0.3591493235592792 L -1.1604499700673594 0.3601081511153972 C -1.288487966601124 0.43402992038186555 -1.3325096573576105 0.598342281018684 -1.2585878880911423 0.7263726069319997 C -1.2089819856478248 0.8122912265806157 -1.1186604298615153 0.8603860167954913 -1.0259302992542372 0.8603860167954913" fill="#c84449" transform="matrix(1,0,0,1,0,0)" fill-rule="nonzero"></path></g><g clip-path="url(#b31fdf3c5-2a58-4b0c-9de7-b12382c942b4495bd6dd-4d7b-4dc1-aae1-3754e171043d)"><path d=" M -1.5567525755620244 0.8985473535289852 C -1.3876307359037185 1.191473007233239 -1.013066668761359 1.2918047227054197 -0.7201410150571053 1.1226828830471138 C -0.4272153613528513 0.9535610433888079 -0.32686063401932386 0.5790429999691421 -0.4959824736776297 0.2861096756444394 C -0.6651043133359359 -0.006815978059814539 -1.0396453686169482 -0.10720905849558678 -1.3325786929416512 0.06191278116271916 C -1.625504346645905 0.23103462082102505 -1.7258744152203305 0.6056216998247314 -1.5567525755620244 0.8985473535289852 M -1.453682448589571 0.5415183247329105 C -1.5348376129393928 0.4946815162716617 -1.562651282687262 0.39092103345880314 -1.5157684505033193 0.3097351866271853 C -1.4689316420420704 0.22857235165691425 -1.365148147367865 0.2008047056317389 -1.283985312397594 0.2476415140929878 C -1.2028301480477719 0.2944859931746856 -1.1750548314021476 0.39826181722844206 -1.2218993104838454 0.4794246521987131 C -1.2687361189450943 0.5605874871689841 -1.372496601757953 0.5884011569168531 -1.4536824485895707 0.5415183247329105 M -0.5990142475478386 0.6431156925791671 C -0.5178590831980163 0.6899601716608649 -0.4900837665523925 0.7937359957146214 -0.5369282456340903 0.8748988306848924 C -0.5837650540953392 0.9560616656551635 -0.6875485487695444 0.9838293116803389 -0.7687113837398154 0.9369925032190899 C -0.8498665480896375 0.890155694757841 -0.8776802178375066 0.7863952119449824 -0.830797385653564 0.7052093651133646 C -0.7839605771923152 0.6240465301430935 -0.6802000943794565 0.5962405310156734 -0.5990142475478386 0.6431156925791671 M -1.026352183378929 0.8181132275013637 C -0.9326478839746356 0.8181285687422616 -0.8566550471869525 0.8940677111868021 -0.8566703884278504 0.9877796812115447 C -0.8566857296687481 1.0814839806158383 -0.9326248721132888 1.1574768174035215 -1.0263368421380314 1.1574614761626236 C -1.1200871652650186 1.1574691467830727 -1.196033978330008 1.0815069924771852 -1.1960186370891102 0.9877950224524426 C -1.1960263077095592 0.8940523699459043 -1.1200641534036717 0.8180978862604659 -1.026352183378929 0.8181132275013637 M -0.5369359162545388 0.30975819848853214 C -0.4900914371728411 0.39089035097700736 -0.5178974363002613 0.4946661750307637 -0.5990372594091855 0.5415106541124617 C -0.6802154356203542 0.5883858156759553 -0.7839912596741107 0.5605721459280864 -0.8308357387558085 0.47943999343961097 C -0.8777032296988532 0.39826181722844206 -0.8498972305714331 0.2944859931746856 -0.7687190543602642 0.24761850223164095 C -0.68757923125134 0.2007740231499431 -0.5838034071975837 0.22858002227736324 -0.5369359162545388 0.30975819848853214 M -1.0766177591808557 0.5052439606298569 C -1.084383841695447 0.5097293666791514 -1.0936137662604106 0.5109456894034667 -1.102276717946288 0.5086253072929852 C -1.110939669632165 0.5063049251825035 -1.118325893680921 0.5006379469095449 -1.1228102355243936 0.49287124984571107 C -1.1321187534457011 0.4767019312163673 -1.126567442070685 0.4560484437506311 -1.110406842258452 0.446724797224867 C -1.1026526592207024 0.442243425895184 -1.0934352566433203 0.44102776549238937 -1.084784354945304 0.4433455108167706 C -1.0761334532472882 0.4456632561411517 -1.0687584650650046 0.45132434170839353 -1.0642834014989546 0.45908216676811503 C -1.0597920924802229 0.4668379654710909 -1.0585684297733065 0.4760611552543752 -1.0608819987397797 0.48471977343860073 C -1.0631955677062526 0.49337839162282626 -1.0688565448324607 0.5007620166251759 -1.076617759180856 0.5052439606298569 M -0.9422745126380596 0.4467401384657649 C -0.9261158539496563 0.45609166394256145 -0.9205914331680815 0.4767678988379269 -0.9299324843357096 0.4929326148093025 C -0.9344153216080122 0.5006888796773686 -0.9417979054529518 0.5063446920668789 -0.95045369899772 0.5086539587954948 C -0.9591094925424882 0.5109632255241107 -0.9683282678875867 0.5097364659105329 -0.9760789369565537 0.5052439606298568 C -0.9838409217565107 0.5007747394587585 -0.989505928551808 0.49340104657561745 -0.9918242113350008 0.48474957786515505 C -0.9941424941181936 0.47609810915469264 -0.9929235567118379 0.4668797665528452 -0.9884363064998016 0.4591281904908085 C -0.9839589886154678 0.4513625402029036 -0.9765794103672195 0.44569423157392724 -0.9679218304737786 0.44337086973811685 C -0.9592642505803376 0.4410475079023064 -0.9500382587204288 0.4422595194683593 -0.9422745126380596 0.4467401384657649 M -1.1607107711626232 0.5585317608886672 C -1.1517473950444244 0.5585317588090205 -1.1431514713940094 0.5620940203807544 -1.1368155657319037 0.5684342420548915 C -1.130479660069798 0.5747744637290286 -1.1269232528634334 0.5833728111686088 -1.1269293587054763 0.5923361852071612 C -1.126936209827361 0.6044023810677928 -1.133379779416365 0.6155483507940392 -1.1438328371495863 0.6215755154268355 C -1.154285894882808 0.6276026800596318 -1.1671603726100153 0.6275953699036766 -1.1776065791314227 0.6215563386239925 C -1.1880527856528298 0.6155173073443084 -1.1944836936802719 0.6043640274621697 -1.1944768423785868 0.5922978316016444 C -1.1944726078534662 0.5736511001899938 -1.1793575030775536 0.5585359954140777 -1.160710771162627 0.5585317608886672 M -1.0520871149851345 0.5478312453623909 C -1.0402828522102734 0.5410108073307743 -1.0262518095347561 0.53916154349117 -1.0130834977570624 0.5426906452928397 C -0.9999151859793686 0.5462197470945095 -0.9886893884782522 0.5548378330638288 -0.9818779260159547 0.5666472773236494 C -0.9714823864533917 0.5846520135299612 -0.9729566379490999 0.6071460821471504 -0.9856132038927242 0.6236399933622132 C -0.9982697698363484 0.640133904577276 -1.0196159968119551 0.6473792571796892 -1.0396976593649465 0.641997380391479 C -1.0597793219179377 0.636615503603269 -1.0746414274394724 0.6196663337152131 -1.077353442057666 0.5990536496258861 C -1.0800654566758596 0.5784409655365591 -1.070093261378318 0.5582243421445308 -1.0520871149851345 0.5478312453623909 M -0.8920472899383777 0.5585547727500141 C -0.8733888732775278 0.5585759231218899 -0.8582708876818177 0.5737007727292214 -0.8582582068607817 0.5923591970685079 C -0.8582751341135774 0.6110193660890045 -0.8734024563975248 0.6261398232391648 -0.8920626311792839 0.626148280146104 C -0.9107228001997638 0.626131352893313 -0.9258432573499277 0.6110040306093694 -0.9258517142568716 0.5923438558276103 C -0.9258305638849986 0.5736854391667658 -0.9107057142776696 0.5585674535710532 -0.8920472899383831 0.5585547727500142 M -1.0766561122831007 0.6794130685435676 C -1.06051148658695 0.6887406903874069 -1.0549800030797325 0.7093867551477416 -1.0642987427398527 0.7255365093030648 C -1.0687744385696032 0.7333039746534606 -1.0761546339694013 0.7389733609012116 -1.0848133104202067 0.7412955782145383 C -1.093471986871012 0.743617795527865 -1.1026986761013546 0.742402299574738 -1.1104605366015945 0.7379168907076596 C -1.1266110889511407 0.7285765770565402 -1.1321501225366508 0.7079236005276672 -1.1228409180061893 0.6917550968459177 C -1.1183558245540755 0.6839910124454772 -1.110968652499155 0.678327980532995 -1.1023061826493694 0.6760130969607803 C -1.0936437127995835 0.6736982133885654 -1.0844163485446305 0.6749213202184059 -1.0766561122831004 0.6794130685435676 M -0.9761172900587983 0.6794130685435676 C -0.9683621767643927 0.6749323341492858 -0.9591440745778804 0.6737178414682908 -0.9504930624376902 0.676037055100419 C -0.9418420502974999 0.6783562687325472 -0.9344676293297005 0.6840189814908331 -0.9299938492993011 0.6917781087072645 C -0.9255025402805692 0.6995339074102406 -0.924278877573653 0.7087570971935249 -0.926592446540126 0.7174157153777503 C -0.9289060155065991 0.7260743335619759 -0.9345669926328072 0.7334579585643256 -0.9423282069812022 0.7379399025690064 C -0.9528000357578525 0.7442651589099588 -0.9658726005260977 0.7444374369945308 -0.9765074796150046 0.7383903374856281 C -0.9871423587039114 0.7323432379767254 -0.9936790054873639 0.7210209644335378 -0.9935980686832796 0.7087873421187862 C -0.9935171318791953 0.6965537198040348 -0.986831249086538 0.685318925607378 -0.9761172900587983 0.6794130685435678 M -1.2218993104838456 0.7052247063542626 C -1.1750548314021476 0.7863568588427378 -1.2028608305295678 0.8901326828964943 -1.284000653638492 0.9369771619781921 C -1.365178829849661 0.9838446529212366 -1.4689546539034173 0.9560386537938166 -1.5157991329851153 0.8749065013053414 C -1.56266662392816 0.7937283250941725 -1.5348606248007397 0.689952501040416 -1.453682448589571 0.6430850100973714 C -1.3725426254806465 0.5962405310156735 -1.2687744720473393 0.6240465301430935 -1.2218993104838456 0.7052247063542626 M -1.0263598539993781 0.027172541149454145 C -0.9326555545950848 0.02718788239035199 -0.8566627178074014 0.1031346954553416 -0.8566780590482994 0.19683899485963513 C -0.8566703884278505 0.29058931798662235 -0.9326325427337379 0.3665361310516119 -1.0263445127584805 0.36652078981071395 C -1.1200871652650188 0.36652846043116294 -1.1960416489504573 0.2905663061252755 -1.1960263077095592 0.19686200672098197 C -1.1960109664686613 0.10315003669623946 -1.120064153403672 0.027157199908556293 -1.0263598539993781 0.027172541149454145" fill="#e37f7c" transform="matrix(1,0,0,1,0,0)" fill-rule="nonzero"></path></g><g clip-path="url(#c31fdf3c5-2a58-4b0c-9de7-b12382c942b4495bd6dd-4d7b-4dc1-aae1-3754e171043d)"><path d=" M -1.6385444014091088 0.6078615209958228 C -1.6385055997493279 0.768109504438732 -1.5757093205935055 0.9219694749146263 -1.463608231450683 1.0364804504417036 L -1.4493408774154688 1.0510546292948795 L -1.4401974978403282 1.032821564487741 C -1.3640670600065397 0.8809497535224864 -1.2706904288561591 0.7383560011488752 -1.1619150585731075 0.6078615209958226 Z M -1.113781915255987 0.6078615209958228 L -1.1455919782577557 0.6078615209958228 C -1.2592819953511127 0.7430762630345734 -1.3563008909989052 0.8914709802282835 -1.4345595918103555 1.049850341884396 L -1.4394918007590254 1.0598374897089198 L -1.431138495090126 1.0672089559603546 C -1.3343659475062548 1.152651997141136 -1.2152565531750605 1.2045590857191366 -1.0866969544507676 1.2173229981461788 C -1.0402786407166724 1.2218884582559286 -0.9934917954950474 1.221162761630193 -0.9472374040685274 1.2151598831795767 L -0.927562262616986 1.2126209078109762 L -0.9358848858040897 1.194617961617306 C -1.022164330880542 1.008250420634262 -1.0820396689201737 0.8107640413653937 -1.1137819152559865 0.6078615209958244 M -0.625968807805426 0.6073245775643967 L -0.928252618457391 0.6078615209958228 C -0.9289199624364491 0.6100936715464654 -0.9275929450987818 0.6060129014676274 -0.9282679596982889 0.60824505201827 L -1.0125680784321776 0.68832632950524 L -0.8146660708494359 0.7380319500143938 C -0.7970696675395595 0.7302079171564714 -0.6433657749836299 0.6156165182697046 -0.625968807805426 0.6073245775643967 M -1.0653266058800113 0.6734223139729428 L -1.0929408394962077 0.6576745301912619 L -1.0868196843779505 0.688870943557115 C -1.052100588453176 0.8654248876774441 -0.9958885794815127 1.0370620140128088 -0.9194390755615559 1.19994904282932 L -0.9145682315764757 1.210319721676293 L -0.9033461138596715 1.208026206162059 C -0.8353140006811945 1.1941034460053517 -0.7701574082148552 1.168670662132278 -0.7106831400435578 1.132823443280617 C -0.6232355237861995 1.0801740999465865 -0.550269906263652 1.006583718113448 -0.49836803663725115 0.9186904028279108 L -0.4884652656376651 0.9019070852856222 L -0.5073656744238619 0.8971743124686242 C -0.7033346856534701 0.8480976828362837 -0.8910577799004641 0.7728182137503524 -1.0653266058800113 0.6734223139729427 M -0.8292402497024285 0.6078615209958228 C -0.8797980409636306 0.6327149391089243 -0.9312959838995483 0.6556083156093546 -0.9836191568578686 0.6764905621525216 L -1.0131510455862975 0.6882649645416484 L -0.9849461741955323 0.7029235202195794 C -0.8291928030841498 0.7838381890756967 -0.6643312214215248 0.8458573130000754 -0.49386538243371647 0.8876627431119358 L -0.48254354665108057 0.8904395077144519 L -0.4773582072275948 0.8799997932834398 C -0.4444151305431778 0.813689818629656 -0.42381375751769523 0.7419385061935663 -0.4165608695492691 0.668252315790355 C -0.4145588376120948 0.6480325602869399 -0.41359233943552787 0.6278971816084632 -0.4135463157128343 0.6078615209958228 Z" fill="#382d5e" transform="matrix(1,0,0,1,0,0)" fill-rule="nonzero"></path></g></g></g><defs><clipPath id="SvgjsClipPath1001"><path d=" M -1.651277631354355 -0.029313907836565622 h 1.251277631354355 v 1.2597996906731312 h -1.251277631354355 Z"></path></clipPath><clipPath id="a31fdf3c5-2a58-4b0c-9de7-b12382c942b4495bd6dd-4d7b-4dc1-aae1-3754e171043d"><path d=" M -1.6512776313543551 1.2304857828365656 L -0.39999232937955087 1.2304857828365656 L -0.39999232937955087 -0.03700754014685612 L -1.6512776313543551 -0.03700754014685612 Z"></path></clipPath><clipPath id="b31fdf3c5-2a58-4b0c-9de7-b12382c942b4495bd6dd-4d7b-4dc1-aae1-3754e171043d"><path d=" M -1.6385904251318024 0.5923591970685079 L -0.4160315967382917 0.5923591970685079 L -0.4160315967382917 -0.036999869526407145 L -1.6385904251318024 -0.036999869526407145 Z"></path></clipPath><clipPath id="c31fdf3c5-2a58-4b0c-9de7-b12382c942b4495bd6dd-4d7b-4dc1-aae1-3754e171043d"><path d=" M -1.6512776313543551 1.2304857828365656 L -0.39999232937955087 1.2304857828365656 L -0.39999232937955087 -0.03700754014685612 L -1.6512776313543551 -0.03700754014685612 Z"></path></clipPath></defs></svg>